<svg width="200" height="278" viewBox="0 0 200 278" fill="none" xmlns="http://www.w3.org/2000/svg">
<g clip-path="url(#clip0_1:78)">
<path d="M143.081 260.127C139.324 253.885 136.33 252.229 127.031 251.975C117.732 251.72 105.376 251.847 105.376 251.847L105.249 265.031C105.249 265.031 115.503 270.954 120.981 273.884C121.299 274.075 122.191 274.585 122.828 274.967C123.783 275.413 124.802 275.795 125.821 276.05C131.235 277.196 136.139 276.623 139.642 273.12C143.527 269.235 146.839 266.369 143.081 260.127Z" fill="#4B49BB"/>
<path d="M72.9576 248.408C72.6392 248.663 71.8112 249.299 71.238 249.745C70.4737 250.446 69.7731 251.274 69.1362 252.102C66.079 256.688 64.7415 261.464 66.7159 266.05C68.8814 271.082 70.3463 275.285 77.4797 274.075C84.6131 272.865 87.3518 270.7 91.0459 262.229C94.7399 253.758 99.262 242.166 99.1983 242.166L87.0333 237.134C87.0333 237.134 77.7345 244.459 72.9576 248.408Z" fill="#4B49BB"/>
<path d="M106.204 252.42C106.204 252.42 106.395 265.732 104.23 266.05C102.064 266.369 72.1933 262.038 60.2831 261.401C48.3729 260.764 21.368 253.057 8.12025 238.09C-3.34412 225.161 -1.56078 210.83 6.91012 210.83C15.381 210.83 23.1513 203.633 44.6789 213.887C66.2064 224.142 89.0078 225.861 101.81 224.842C114.612 223.823 150.47 217.199 153.272 215.161C156.074 213.123 169.513 207.263 188.238 209.302C206.963 211.34 198.11 226.18 194.162 231.912C188.62 239.873 175.5 248.408 164.545 248.79C153.59 249.172 106.204 252.42 106.204 252.42Z" fill="url(#paint0_linear_1:78)"/>
<path d="M84.0399 19.6299C77.7345 21.9228 69.7094 53.1313 69.7094 53.1313L69.582 53.004L68.6903 57.3349L67.6076 63.0034L69.7094 96.887L90.0905 107.078L136.903 119.688L149.833 138.095C149.833 138.095 178.812 167.584 179.003 169.622C179.194 171.66 147.858 182.042 144.865 182.488C137.668 183.57 190.913 170.514 173.844 149.814C166.583 140.961 155.947 114.338 134.865 96.6959C122.637 86.5054 126.076 57.526 121.745 39.183C116.331 16.2543 113.019 9.37566 107.606 9.37566C102.701 9.37566 95.8864 15.2352 84.0399 19.6299Z" fill="url(#paint1_linear_1:78)"/>
<path d="M150.278 93.7025C140.47 84.722 137.158 82.5566 128.56 85.6137C119.962 88.6709 115.758 91.4733 104.039 93.384C96.8418 94.6578 89.3899 93.7025 82.7024 90.7727L58.5635 93.1929C55.5063 92.8108 21.1769 157.266 20.3489 170.641C19.8394 178.857 38.5008 191.532 43.7235 192.806C45.8253 193.315 49.5831 173.061 50.7932 171.214L42.9592 168.794C44.3604 165.291 49.0735 156.629 52.1944 151.98C53.1498 150.515 60.6016 138.222 61.6207 133.509C61.8117 133.955 62.8945 142.872 63.9135 145.738C65.8242 151.024 68.4356 154.018 68.4356 158.221C68.4356 162.425 67.9261 179.112 64.8689 186.628C61.8117 194.143 57.3534 211.531 57.3534 211.531L134.547 211.085C134.547 211.085 131.744 177.902 132.891 166.501C132.891 166.501 131.681 161.915 133.974 155.292C137.731 144.337 138.814 128.032 138.177 125.484C137.222 121.472 160.851 155.419 166.01 164.017C168.176 167.584 138.814 173.889 136.394 176.628C133.846 179.494 138.878 187.264 138.878 187.264C138.878 187.264 190.085 181.023 189.831 173.189C189.576 165.355 161.679 104.084 150.278 93.7025Z" fill="url(#paint2_linear_1:78)"/>
<path d="M90.2179 1.2869C90.2179 1.2869 75.8874 1.86012 71.7475 16.8912C67.6076 31.9222 67.0344 52.8766 66.907 56.1248C66.7796 59.5641 68.3719 79.6905 60.6653 88.0977C54.0414 95.3584 56.7165 102.364 55.0605 108.16L54.2962 117.778C54.4236 118.924 55.2516 119.879 56.3343 120.262C57.3534 120.58 60.9201 118.924 61.557 118.669C70.4737 115.103 70.4737 112.237 73.8493 109.37C76.6517 107.014 84.3583 101.536 86.6512 99.371C88.9441 97.2055 90.5364 95.2947 90.6637 92.556C91.1096 78.6077 88.6893 65.7421 85.6321 58.9272C82.575 52.1123 76.7154 40.5842 81.6196 32.9413C86.5238 25.2984 95.3769 17.6555 95.8864 15.7447C96.3959 13.834 96.6507 23.1329 102.064 26.3811C107.478 29.6294 112 34.1514 113.656 38.5461C115.057 42.2402 116.904 48.5456 111.809 59.4367C106.714 70.3279 102.574 84.3399 109.771 94.7215C116.968 105.103 132.127 116.313 134.61 121.535C137.413 127.331 134.738 140.961 134.228 149.177C133.719 157.393 150.278 134.911 149.769 124.21C149.259 113.51 151.043 108.925 140.789 92.4923C130.534 76.0601 123.847 47.9087 123.592 41.0937C123.337 34.2788 120.28 15.3626 114.102 9.94887C108.752 5.36312 107.606 0.904755 96.6507 0.904755C94.4852 0.904755 92.3197 1.03214 90.2179 1.2869Z" fill="url(#paint3_linear_1:78)"/>
<path opacity="0.07" d="M57.5444 229.046L129.897 229.428C129.897 229.428 121.426 236.052 117.35 236.816C113.274 237.58 95.8227 246.242 89.3262 242.93C84.7405 240.446 57.5444 229.046 57.5444 229.046Z" fill="black"/>
<path opacity="0.07" d="M97.8608 66.5701C97.8608 66.5701 104.612 68.2898 107.414 64.3409C113.72 55.4242 107.988 68.863 107.988 68.863C107.988 68.863 106.141 74.0857 106.268 76.697C106.395 79.3083 99.0072 66.9523 97.8608 66.5701Z" fill="black"/>
<path opacity="0.07" d="M70.8558 112.428C70.0278 113.447 68.8177 114.275 68.1808 116.886C67.098 121.09 65.9516 125.803 63.0218 130.134C61.3022 132.681 62.2575 142.553 65.1236 148.795C65.9516 150.578 68.4993 155.228 68.4356 156.311L68.2445 165.355H76.0148C76.0148 165.355 82.6386 166.055 81.2374 160.578C80.0273 155.737 73.7219 137.713 77.9892 133.764C86.0143 126.44 75.8874 111.791 79.6452 107.078C82.8934 103.001 87.5428 100.072 87.5428 98.734C87.5428 98.2245 86.3327 99.8805 85.5047 100.454C83.9125 101.6 83.0845 102.492 81.747 103.383C80.2821 104.339 78.0529 105.931 76.588 107.014C74.4862 108.606 72.5755 110.389 70.8558 112.428Z" fill="black"/>
<path d="M40.6026 170.45C40.6026 170.45 40.5389 165.737 45.1884 165.546C49.8378 165.355 148.304 165.482 148.304 165.482C148.304 165.482 152.635 165.992 152.762 169.495C152.89 172.998 152.89 225.033 152.89 225.033C152.89 225.033 152.953 229.046 148.686 229.173C144.419 229.3 44.0419 229.301 44.0419 229.301C44.0419 229.301 40.2842 228.345 40.3478 224.587C40.4115 220.83 40.6026 170.45 40.6026 170.45Z" fill="white"/>
<path d="M97.0328 201.659C99.3896 201.659 101.3 199.748 101.3 197.391C101.3 195.035 99.3896 193.124 97.0328 193.124C94.676 193.124 92.7655 195.035 92.7655 197.391C92.7655 199.748 94.676 201.659 97.0328 201.659Z" fill="#77C7E8"/>
</g>
<defs>
<linearGradient id="paint0_linear_1:78" x1="199.737" y1="237.221" x2="0.0379419" y2="237.221" gradientUnits="userSpaceOnUse">
<stop stop-color="#4B45BD"/>
<stop offset="1" stop-color="#58CAEA"/>
</linearGradient>
<linearGradient id="paint1_linear_1:78" x1="67.6076" y1="95.9629" x2="179.004" y2="95.9629" gradientUnits="userSpaceOnUse">
<stop stop-color="#F87B58"/>
<stop offset="0.5" stop-color="#F8C548"/>
<stop offset="1" stop-color="#F89C51"/>
</linearGradient>
<linearGradient id="paint2_linear_1:78" x1="20.3387" y1="147.92" x2="189.831" y2="147.92" gradientUnits="userSpaceOnUse">
<stop stop-color="#E5A4ED"/>
<stop offset="1" stop-color="#7A5BF5"/>
</linearGradient>
<linearGradient id="paint3_linear_1:78" x1="54.2962" y1="75.9252" x2="149.78" y2="75.9252" gradientUnits="userSpaceOnUse">
<stop stop-color="#4B45BD"/>
<stop offset="1" stop-color="#58CAEA"/>
</linearGradient>
<clipPath id="clip0_1:78">
<rect width="200" height="276.19" fill="white" transform="translate(0 0.904755)"/>
</clipPath>
</defs>
</svg>
